#!OML:ASF H:\Male1\Project 1\Capture day 1\Session 1\Male1.ASF
:FULLY-SPECIFIED
:DEGREES
392
root 8.42153 15.431 4.06781 175.636 8.8698 -179.655
lowerback 8.06406 1.75788 -0.746829
upperback 4.82186 2.70819 -1.33183
thorax 0.499906 1.53732 -1.15172
lowerneck -7.77187 9.12179 11.5887
upperneck 3.10875 11.5501 -8.96586
head 3.37296 5.60583 -3.86281
rclavicle -9.93923e-016 1.78906e-014
rhumerus -0.307098 -2.26819 -61.0124
rradius 118.147
rwrist -11.4239
rhand -35.5931 17.2068
rfingers 7.12502
rthumb -8.71717 -12.5932
lclavicle -9.93923e-016 1.78906e-014
lhumerus -4.47623 6.59768 51.7965
lradius 122.557
lwrist -3.28873
lhand -38.2497 1.24332
lfingers 7.12502
lthumb -11.2801 30.92
rfemur -0.936451 16.7713 21.5041
rtibia 21.9203
rfoot -27.449 -31.1983
rtoes -16.1017
lfemur 1.93713 -19.7216 -18.2932
ltibia 19.3298
lfoot -21.7742 31.027
ltoes -6.83993
393
root 8.41706 15.433 4.05823 175.718 8.95965 -179.683
lowerback 8.11741 1.77723 -0.783256
upperback 4.82319 2.73209 -1.33411
thorax 0.470892 1.54918 -1.13772
lowerneck -7.83396 9.07622 11.4942
upperneck 3.17255 11.4921 -8.92204
head 3.3883 5.57568 -3.83663
rclavicle -2.78299e-014 1.86858e-014
rhumerus 0.169858 -5.87672 -58.6962
rradius 117.255
rwrist -11.6167
rhand -36.8379 17.7703
rfingers 7.12502
rthumb -9.9183 -11.976
lclavicle -2.78299e-014 1.86858e-014
lhumerus -4.70169 10.222 49.4145
lradius 122.068
lwrist -3.25685
lhand -39.445 -0.0831535
lfingers 7.12502
lthumb -12.4327 29.5271
rfemur -1.02455 16.8723 21.4485
rtibia 21.9652
rfoot -27.4119 -31.232
rtoes -16.2937
lfemur 1.92369 -19.7109 -18.3413
ltibia 19.2888
lfoot -21.8081 31.1172
ltoes -6.88044
394
root 8.41209 15.4342 4.04738 175.786 9.01426 -179.744
lowerback 8.14979 1.78038 -0.863587
upperback 4.82264 2.7311 -1.33411
thorax 0.449075 1.54741 -1.09416
lowerneck -7.85856 9.0278 11.3811
upperneck 3.25408 11.4352 -8.85555
head 3.40069 5.54725 -3.80195
rclavicle 1.6201e-014 4.37326e-015
rhumerus 0.529016 -9.17215 -56.5736
rradius 116.321
rwrist -11.7774
rhand -37.8033 17.8829
rfingers 7.12502
rthumb -10.8495 -11.8168
lclavicle 1.6201e-014 4.37326e-015
lhumerus -5.09969 13.6482 47.299
lradius 121.631
lwrist -3.23486
lhand -40.4794 -1.48682
lfingers 7.12502
lthumb -13.4299 28.0602
rfemur -1.09625 16.9357 21.3567
rtibia 22.0146
rfoot -27.3481 -31.2898
rtoes -16.6358
lfemur 1.91495 -19.709 -18.4323
ltibia 19.2514
lfoot -21.8189 31.2001
ltoes -6.99244
395
root 8.40716 15.4344 4.03544 175.83 9.03741 -179.821
lowerback 8.17834 1.77458 -0.968378
upperback 4.81877 2.71605 -1.3295
thorax 0.424495 1.53786 -1.03107
lowerneck -7.82327 8.97106 11.2714
upperneck 3.32978 11.3734 -8.79662
head 3.40199 5.51742 -3.77313
rclavicle 1.18277e-014 -7.15625e-015
rhumerus 0.698569 -12.1209 -54.613
rradius 115.456
rwrist -11.8456
rhand -38.2787 17.6181
rfingers 7.12502
rthumb -11.308 -12.057
lclavicle 1.18277e-014 -7.15625e-015
lhumerus -5.68056 16.7891 45.4304
lradius 121.307
lwrist -3.26896
lhand -41.2362 -2.72121
lfingers 7.12502
lthumb -14.1592 26.7763
rfemur -1.13703 16.9748 21.255
rtibia 22.0665
rfoot -27.31 -31.3532
rtoes -16.9604
lfemur 1.92283 -19.7016 -18.5451
ltibia 19.2181
lfoot -21.8082 31.2572
ltoes -7.13623
396
root 8.40252 15.4338 4.02274 175.848 9.03428 -179.893
lowerback 8.22492 1.76671 -1.06641
upperback 4.81081 2.69815 -1.32244
thorax 0.385989 1.52702 -0.969874
lowerneck -7.75331 8.91677 11.1997
upperneck 3.4146 11.3167 -8.76433
head 3.40487 5.49044 -3.75884
rclavicle -3.21037e-014 3.18055e-015
rhumerus 0.628074 -14.6931 -52.7832
rradius 114.733
rwrist -11.7959
rhand -38.2202 17.2346
rfingers 7.12502
rthumb -11.2516 -12.4436
lclavicle -3.21037e-014 3.18055e-015
lhumerus -6.44292 19.5525 43.7892
lradius 121.137
lwrist -3.35696
lhand -41.7793 -3.57871
lfingers 7.12502
lthumb -14.6825 25.8814
rfemur -1.13746 17.0127 21.1691
rtibia 22.116
rfoot -27.3267 -31.4153
rtoes -17.167
lfemur 1.95144 -19.6814 -18.6562
ltibia 19.1932
lfoot -21.7889 31.2766
ltoes -7.27498
397
root 8.39836 15.4331 4.00986 175.845 9.0102 -179.943
lowerback 8.29236 1.75776 -1.12364
upperback 4.80426 2.68189 -1.3215
thorax 0.339587 1.51831 -0.938688
lowerneck -7.67124 8.86479 11.1862
upperneck 3.50022 11.2621 -8.78072
head 3.41255 5.46395 -3.76827
rclavicle -1.78906e-015 1.90833e-014
rhumerus 0.308115 -16.8745 -51.0808
rradius 114.182
rwrist -11.6364
rhand -37.7293 17.0183
rfingers 7.12502
rthumb -10.7782 -12.6852
lclavicle -1.78906e-015 1.90833e-014
lhumerus -7.35493 21.888 42.3513
lradius 121.14
lwrist -3.44053
lhand -42.1496 -3.69615
lfingers 7.12502
lthumb -15.0393 25.7376
rfemur -1.10379 17.0675 21.116
rtibia 22.1655
rfoot -27.4207 -31.462
rtoes -17.1795
lfemur 2.00029 -19.6442 -18.7445
ltibia 19.1683
lfoot -21.7442 31.2631
ltoes -7.44224
398
root 8.39472 15.4323 3.99742 175.834 8.97512 -179.958
lowerback 8.37423 1.74442 -1.13187
upperback 4.80128 2.66351 -1.32206
thorax 0.291088 1.50982 -0.936725
lowerneck -7.61309 8.82405 11.2311
upperneck 3.61694 11.2197 -8.84781
head 3.44104 5.44199 -3.79918
rclavicle 1.3418e-014 -2.06736e-014
rhumerus -0.224859 -18.6502 -49.5049
rradius 113.799
rwrist -11.4076
rhand -36.9761 17.1736
rfingers 7.12502
rthumb -10.0516 -12.5663
lclavicle 1.3418e-014 -2.06736e-014
lhumerus -8.38322 23.81 41.0907
lradius 121.315
lwrist -3.48861
lhand -42.2432 -3.17918
lfingers 7.12502
lthumb -15.1295 26.2478
rfemur -1.05858 17.1179 21.1065
rtibia 22.2201
rfoot -27.5103 -31.5187
rtoes -17.2001
lfemur 2.06273 -19.5928 -18.7912
ltibia 19.1347
lfoot -21.665 31.2322
ltoes -7.6553
